# xmcd CD database file
#
# Track frame offsets:
#	150
#	14543
#	34156
#	48662
#	62787
#	75091
#	78063
#	94311
#	117208
#	131248
#	132915
#	143675
#	166587
#	186237
#	212392
#	215112
#	233112
#	252377
#
# Disc length: 3626 seconds
#
# Revision: 0
# Processed by: cddbd v1.5.1PL2 Copyright (c) Steve Scherf et al.
# Submitted via: CDex 1.51
#
DISCID=f60e2812
DTITLE=Various Artist - 25 Years of New Orleans Roots Music
DYEAR=2006
DGENRE=Blues
TTITLE0=Black Haired Girl- John Magnie
TTITLE1=Missin' You- Theresa Andersson
TTITLE2=Fishin' Blues- Big Daddy 'O'
TTITLE3=Now's Not The Time- Big Daddy 'O'
TTITLE4=Louisiana Moon -Big Daddy 'O'
TTITLE5=Interlude # 1
TTITLE6=Mansion On The Hill- Doug Duffey
TTITLE7=Boogie Woogie- Al Broussard
TTITLE8=Mountain Stream- Tex Townes and his Two Tone Trance Band
TTITLE9=Interlude #2
TTITLE10=Everything I Do Gonh Be Funky- The Rockin' Jake Band
TTITLE11=Life is a Bitch- Nora Wixted
TTITLE12=Louisiana Rain- Anders Osborne
TTITLE13=Real World- Anders Osborne
TTITLE14=Interlude #3
TTITLE15=Rockin' Louisiana Man- Jeff Spence
TTITLE16=My Name is John- John Autin
TTITLE17=I Miss My Darlin New Orleans- Jeff Autin
EXTD=YEAR: 2006
EXTT0=
EXTT1=
EXTT2=
EXTT3=
EXTT4=
EXTT5=
EXTT6=
EXTT7=
EXTT8=
EXTT9=
EXTT10=
EXTT11=
EXTT12=
EXTT13=
EXTT14=
EXTT15=
EXTT16=
EXTT17=
PLAYORDER=
